<svg width="19" height="19" viewBox="0 0 19 19" fill="none" xmlns="http://www.w3.org/2000/svg">
<path d="M10.1837 17.8188L17.8874 10.1573C18.2599 9.7908 18.2599 9.19178 17.8874 8.8213L10.1837 1.16372C9.81516 0.793244 9.21282 0.793244 8.84034 1.16372L7.96059 2.03866C7.58018 2.41306 7.58808 3.02394 7.97646 3.39045L12.7516 7.91484H1.36257C0.835524 7.91484 0.411499 8.33655 0.411499 8.86071V10.1219C0.411499 10.646 0.835524 11.0677 1.36257 11.0677H12.7516L7.97646 15.5921C7.59206 15.9586 7.58413 16.5695 7.96059 16.9439L8.84034 17.8188C9.20887 18.1893 9.81122 18.1893 10.1837 17.8188Z" fill="#183B56"/>
</svg>
