<svg width="19" height="19" viewBox="0 0 19 19" fill="none" xmlns="http://www.w3.org/2000/svg">
<path d="M10.0868 17.8188L10.9666 16.9439C11.347 16.5695 11.3391 15.9586 10.9507 15.5921L6.17554 11.0677H17.5646C18.0916 11.0677 18.5156 10.646 18.5156 10.1219V8.86071C18.5156 8.33655 18.0916 7.91484 17.5646 7.91484H6.17554L10.9507 3.39045C11.3351 3.02394 11.343 2.41306 10.9666 2.03866L10.0868 1.16372C9.71828 0.793244 9.11593 0.793244 8.74345 1.16372L1.03979 8.82522C0.667277 9.19178 0.667277 9.7908 1.03979 10.1613L8.74345 17.8188C9.11198 18.1893 9.71433 18.1893 10.0868 17.8188Z" fill="#959EAD"/>
</svg>
